<svg xmlns="http://www.w3.org/2000/svg" viewBox="0 0 32 32" preserveAspectRatio="xMidYMid meet" style="width: 200px; height: 200px; transform-origin: 50% 50%; transform: scaleX(1) scaleY(1) rotate(180deg);"><title/><g id="eject" fill="#000000" style="fill:#000000;stroke:none" stroke="none"><path d="M4.84,22H27.16a2,2,0,0,0,1.64-3.14L17.68,3.75A2,2,0,0,0,16,2.83a2,2,0,0,0-1.64.87L3.17,18.91A2,2,0,0,0,4.84,22Z" fill="#000000" style="fill:#000000;stroke:none" stroke="none"/><path d="M26.79,23H5.21A3.21,3.21,0,0,0,2,26.21V29a1,1,0,0,0,1,1H29a1,1,0,0,0,1-1V26.21A3.21,3.21,0,0,0,26.79,23Z" fill="#000000" style="fill:#000000;stroke:none" stroke="none"/></g></svg>