<?xml version="1.0" ?><svg viewBox="0 0 32 32" xmlns="http://www.w3.org/2000/svg"><title/><g id="random"><path d="M29.71,23.29l-5-5a1,1,0,0,0-1.42,1.42L26.59,23H24A7,7,0,0,1,24,9h2.59l-3.3,3.29a1,1,0,0,0,0,1.42,1,1,0,0,0,1.42,0l5-5a1,1,0,0,0,.21-.33,1,1,0,0,0,0-.76,1,1,0,0,0-.21-.33l-5-5a1,1,0,0,0-1.42,1.42L26.59,7H24a9,9,0,0,0-8,4.9A9,9,0,0,0,8,7H3A1,1,0,0,0,3,9H8A7,7,0,0,1,8,23H3a1,1,0,0,0,0,2H8a9,9,0,0,0,8-4.9A9,9,0,0,0,24,25h2.59l-3.3,3.29a1,1,0,0,0,0,1.42,1,1,0,0,0,1.42,0l5-5a1,1,0,0,0,.21-.33,1,1,0,0,0,0-.76A1,1,0,0,0,29.71,23.29Z"/></g></svg>