<?xml version="1.0" ?><svg viewBox="0 0 32 32" xmlns="http://www.w3.org/2000/svg"><title/><g data-name="volume play" id="volume_play"><path d="M23.5,2.14a1,1,0,0,0-1,0L6.74,11H3a1,1,0,0,0-1,1v8a1,1,0,0,0,1,1H6.74l15.77,8.87A1,1,0,0,0,23,30a1,1,0,0,0,1-1V3A1,1,0,0,0,23.5,2.14Z"/><path d="M25,18a1,1,0,0,0,1,1,1.94,1.94,0,0,0,1.43-.53A2.91,2.91,0,0,0,28,16.26v-.52a2.91,2.91,0,0,0-.57-2.21A1.94,1.94,0,0,0,26,13a1,1,0,0,0,0,2,5.72,5.72,0,0,1,0,.73v.54A5.72,5.72,0,0,1,26,17,1,1,0,0,0,25,18Z"/><path d="M26,10a1,1,0,0,0,0,2c2.71,0,3,2.8,3,4s-.29,4-3,4a1,1,0,0,0,0,2c3,0,5-2.36,5-6S29,10,26,10Z"/></g></svg>