<svg xmlns="http://www.w3.org/2000/svg" role="img" viewBox="0 0 24 24" preserveAspectRatio="xMidYMid meet" style="width: 200px; height: 200px; transform-origin: 50% 50%; transform: scaleX(1) scaleY(1) rotate(0deg);"><path id="svg-editor-bg-shape" data-editor="bg-shape" d="M 19.546080503463745 12 C 19.582935428416505 13.137080747433007 19.17837677855492 14.750391083326122 18.68778850605041 15.86119649425149 C 18.1972002335459 16.972001905176857 17.278660296007917 18.744834884179586 16.275492020100355 19.40536940616911 C 15.272323744192793 20.065903928158637 13.275232773810625 20.277602840315392 12 20.26475997418165 C 10.724767226189375 20.25191710804791 8.755452028911183 19.99278817304126 7.7739401946961895 19.319750298610842 C 6.792428360481196 18.646712424180425 5.949465005993888 16.875803356103823 5.456587771900043 15.777840811312199 C 4.9637105378061985 14.679878266520573 4.620552085539083 13.209828128255905 4.488091967403888 12.000000000000002 C 4.355631849268693 10.790171871744098 4.086271314359382 8.820030882745685 4.5735203176654124 7.712319956272843 C 5.060769320971443 6.604609029800001 6.622446703760572 5.214809874439739 7.73641865611076 4.6152604901810514 C 8.850390608460948 4.015711105922364 10.737144510403272 3.6872320788680355 11.999999999999998 3.7153240612149236 C 13.262855489596724 3.743416043561812 15.18914190246746 4.117740254971162 16.15545525342226 4.80254037249364 C 17.12176860437706 5.487340490016118 17.933495218859115 7.201039233905487 18.442089006365336 8.280658178031441 C 18.950682793871557 9.360277122157395 19.509225578510986 10.862919252566993 19.546080503463745 12 Z" fill="#E6F4F1" stroke="none" style="pointer-events: none;"/><title>Saturn</title><path d="M19.039 11.459c.001.015.022.244.03.407.006.113 0 .29 0 .3.003 0 .029.023.03.024 1.428 1.17 2.943 2.767 3.204 3.94.073.325.056.618-.072.868-.152.293-.439.503-.834.638-2.046.7-6.925-.642-10.907-2.609-2.845-1.406-5.342-3.081-7.032-4.719-1.57-1.523-1.995-2.71-1.59-3.427.155-.271.42-.472.776-.609 1.299-.507 3.788-.152 6.239.579-1.16.866-1.968 2.034-2.342 3.202l-.001.007a.051.051 0 0 1-.001.006c-.115 1.07 1.434 2.47 3 3.25-.002-.006.084.032.084.026-.002-.006-.015-.109-.017-.113-.366-2.66 1.648-6.64 3.765-7.513.136-.056.254-.09.27-.095l-.273-.027c-.074-.006-.148-.013-.228-.015a7.464 7.464 0 0 0-.272-.01 6.443 6.443 0 0 0-3.4.892C5.378 5.057 2.383 4.892 1.13 5.31c-.497.167-.833.418-1 .751-.174.35-.175.79-.002 1.306.57 1.704 3.058 4.032 6.211 6.099.457 2.407 2.615 4.875 5.703 5.204l.142.015a.278.278 0 0 1 .05 0 6.618 6.618 0 0 0-.173-.132c-.955-.736-1.813-1.949-2.107-3l.185.093.143.07c4.985 2.465 10.215 3.72 12.53 2.947.519-.174.9-.418 1.075-.768.167-.335.139-.78-.029-1.278-.436-1.3-2.304-3.284-4.675-5.052a5.003 5.003 0 0 0-.145-.107" fill="#95B0B6" style="fill:#95B0B6;stroke:none" stroke="none" class="" data-editor-stroke-width-attr="" data-editor-stroke-width-style=""/></svg>