<svg xmlns="http://www.w3.org/2000/svg" role="img" viewBox="0 0 24 24" preserveAspectRatio="xMidYMid meet" style="width: 200px; height: 200px; transform-origin: 50% 50%; transform: scaleX(1) scaleY(1) rotate(0deg);"><path id="svg-editor-bg-shape" data-editor="bg-shape" d="M 19.973456714451313 12 C 19.93907196913011 13.150328322373332 19.11761148010779 14.719991354834296 18.526807848049586 15.76825426802039 C 17.93600421599138 16.816517181206486 17.013787011270733 18.26069046454872 16.034765834063293 18.98841942124064 C 15.055744656855856 19.71614837793256 13.177149310112 20.677424059130086 12 20.61978064596653 C 10.822850689888 20.56213723280297 9.261252263798172 19.276937173067093 8.187103766649964 18.604130000150263 C 7.1129552695017555 17.931322827233434 5.4680401436539015 17.125018993210205 4.839010019011946 16.134399493187665 C 4.20997989436999 15.143779993165126 3.9741317066971145 13.22909737365693 3.993569602370261 12.000000000000002 C 4.013007498043407 10.770902626343073 4.363836728558134 8.973074870082158 4.968595990166257 7.940417002141478 C 5.57335525177438 6.907759134200798 6.970587411616022 5.663104580664529 8.025298013091083 5.115614213728798 C 9.080008614566145 4.568123846793068 10.791567869044838 4.318231335001644 11.999999999999998 4.290481222569942 C 13.208432130955158 4.2627311101382395 15.068106296930178 4.359275829739877 16.08151221945882 4.9306134641841135 C 17.09491814198746 5.50195109862835 18.172247809275394 7.038990805159133 18.75603948352427 8.099398785531516 C 19.339831157773144 9.159806765903898 20.007841459772514 10.849671677626668 19.973456714451313 12 Z" fill="#E6F4F1" stroke="none" style="pointer-events: none;"/><title>Saturn</title><path d="M19.039 11.459c.001.015.022.244.03.407.006.113 0 .29 0 .3.003 0 .029.023.03.024 1.428 1.17 2.943 2.767 3.204 3.94.073.325.056.618-.072.868-.152.293-.439.503-.834.638-2.046.7-6.925-.642-10.907-2.609-2.845-1.406-5.342-3.081-7.032-4.719-1.57-1.523-1.995-2.71-1.59-3.427.155-.271.42-.472.776-.609 1.299-.507 3.788-.152 6.239.579-1.16.866-1.968 2.034-2.342 3.202l-.001.007a.051.051 0 0 1-.001.006c-.115 1.07 1.434 2.47 3 3.25-.002-.006.084.032.084.026-.002-.006-.015-.109-.017-.113-.366-2.66 1.648-6.64 3.765-7.513.136-.056.254-.09.27-.095l-.273-.027c-.074-.006-.148-.013-.228-.015a7.464 7.464 0 0 0-.272-.01 6.443 6.443 0 0 0-3.4.892C5.378 5.057 2.383 4.892 1.13 5.31c-.497.167-.833.418-1 .751-.174.35-.175.79-.002 1.306.57 1.704 3.058 4.032 6.211 6.099.457 2.407 2.615 4.875 5.703 5.204l.142.015a.278.278 0 0 1 .05 0 6.618 6.618 0 0 0-.173-.132c-.955-.736-1.813-1.949-2.107-3l.185.093.143.07c4.985 2.465 10.215 3.72 12.53 2.947.519-.174.9-.418 1.075-.768.167-.335.139-.78-.029-1.278-.436-1.3-2.304-3.284-4.675-5.052a5.003 5.003 0 0 0-.145-.107" fill="#95B0B6" style="fill:#95B0B6;stroke:none" stroke="none" class="" data-editor-stroke-width-attr="" data-editor-stroke-width-style=""/></svg>