<svg xmlns="http://www.w3.org/2000/svg" role="img" viewBox="0 0 24 24" preserveAspectRatio="xMidYMid meet" style="width: 200px; height: 200px; transform-origin: 50% 50%; transform: scaleX(1) scaleY(1) rotate(0deg);"><path id="svg-editor-bg-shape" data-editor="bg-shape" d="M 20.5269554284215 12 C 20.449045103643684 13.218393598482013 19.406694023882363 14.790655350103235 18.77469763803235 15.9113735049963 C 18.142701252182338 17.032091659889367 17.32985083512627 18.790667633756964 16.313646189421416 19.47145436595377 C 15.297441543716563 20.15224109815058 13.210045004032551 20.59552860299855 12 20.449951719641685 C 10.789954995967449 20.304374836284822 9.233622162138124 19.198622954143584 8.246679495871069 18.500941810241343 C 7.259736829604015 17.803260666339103 6.116950552343019 16.77388536516294 5.420382224886306 15.798744093626738 C 4.723813897429593 14.823602822090537 3.721873772128358 13.20831816789508 3.602890646159649 12.000000000000002 C 3.4839075201909395 10.791681832104924 3.983194092160255 8.80953857685197 4.627161385094911 7.743289640992883 C 5.271128678029566 6.677040705133795 6.790080140154923 5.371819423373815 7.896005932390686 4.8916737609394145 C 9.001931724626449 4.4115280985050145 10.827935369007287 4.439896177012551 11.999999999999998 4.542318558096885 C 13.17206463099271 4.644740939181219 14.615655168526093 5.087524991282072 15.70977013900876 5.57448963483497 C 16.80388510949143 6.061454278387869 18.57152200980587 6.824922960341457 19.294099803217783 7.788749515116211 C 20.016677596629695 8.752576069890965 20.604865753199313 10.781606401517987 20.5269554284215 12 Z" fill="#E6F4F1" stroke="none" style="pointer-events: none;"/><title>Saturn</title><path d="M19.039 11.459c.001.015.022.244.03.407.006.113 0 .29 0 .3.003 0 .029.023.03.024 1.428 1.17 2.943 2.767 3.204 3.94.073.325.056.618-.072.868-.152.293-.439.503-.834.638-2.046.7-6.925-.642-10.907-2.609-2.845-1.406-5.342-3.081-7.032-4.719-1.57-1.523-1.995-2.71-1.59-3.427.155-.271.42-.472.776-.609 1.299-.507 3.788-.152 6.239.579-1.16.866-1.968 2.034-2.342 3.202l-.001.007a.051.051 0 0 1-.001.006c-.115 1.07 1.434 2.47 3 3.25-.002-.006.084.032.084.026-.002-.006-.015-.109-.017-.113-.366-2.66 1.648-6.64 3.765-7.513.136-.056.254-.09.27-.095l-.273-.027c-.074-.006-.148-.013-.228-.015a7.464 7.464 0 0 0-.272-.01 6.443 6.443 0 0 0-3.4.892C5.378 5.057 2.383 4.892 1.13 5.31c-.497.167-.833.418-1 .751-.174.35-.175.79-.002 1.306.57 1.704 3.058 4.032 6.211 6.099.457 2.407 2.615 4.875 5.703 5.204l.142.015a.278.278 0 0 1 .05 0 6.618 6.618 0 0 0-.173-.132c-.955-.736-1.813-1.949-2.107-3l.185.093.143.07c4.985 2.465 10.215 3.72 12.53 2.947.519-.174.9-.418 1.075-.768.167-.335.139-.78-.029-1.278-.436-1.3-2.304-3.284-4.675-5.052a5.003 5.003 0 0 0-.145-.107" fill="#95B0B6" style="fill:#95B0B6;stroke:none" stroke="none" class="" data-editor-stroke-width-attr="" data-editor-stroke-width-style=""/></svg>