<svg xmlns="http://www.w3.org/2000/svg" role="img" viewBox="0 0 24 24" preserveAspectRatio="xMidYMid meet" style="width: 200px; height: 200px; transform-origin: 50% 50%; transform: scaleX(1) scaleY(1) rotate(0deg);"><path id="svg-editor-bg-shape" data-editor="bg-shape" d="M 19.768495654165747 12 C 19.854214200338305 13.20347756767273 19.762845660200092 15.074214096539835 19.23400946383712 16.17655731126666 C 18.705173267474144 17.278900525993485 17.3280224313215 18.792654102439705 16.24292101174593 19.348954764845494 C 15.157819592170364 19.905255427251284 13.21763585997373 19.98090764883325 12 19.88522839397192 C 10.78236414002627 19.789549139110594 9.206191611807794 19.269852327929446 8.125348611921073 18.71109306576998 C 7.044505612034351 18.152333803610514 5.4850111873671406 17.166830606107634 4.79438000075519 16.16016664624214 C 4.103748814143239 15.153502686376642 3.438208737241329 13.200169202171267 3.521140701174735 12.000000000000002 C 3.6040726651081414 10.799830797828736 4.713560778541849 9.264312063006779 5.347259760311231 8.159038631767036 C 5.980958742080613 7.053765200527293 6.74788954368397 5.247265861510613 7.745800579637285 4.631510458401718 C 8.7437116155906 4.015755055292823 10.80480894307047 3.9135873839154742 11.999999999999998 4.054002611041069 C 13.195191056929527 4.194417838166664 14.71435808576447 4.952706335211239 15.713740959167481 5.567611972572348 C 16.713123832570492 6.182517609933457 18.05433928510367 7.188515322667646 18.66255248935341 8.153373526781794 C 19.27076569360315 9.11823173089594 19.68277710799319 10.79652243232727 19.768495654165747 12 Z" fill="#E6F4F1" stroke="none" style="pointer-events: none;"/><title>Saturn</title><path d="M19.039 11.459c.001.015.022.244.03.407.006.113 0 .29 0 .3.003 0 .029.023.03.024 1.428 1.17 2.943 2.767 3.204 3.94.073.325.056.618-.072.868-.152.293-.439.503-.834.638-2.046.7-6.925-.642-10.907-2.609-2.845-1.406-5.342-3.081-7.032-4.719-1.57-1.523-1.995-2.71-1.59-3.427.155-.271.42-.472.776-.609 1.299-.507 3.788-.152 6.239.579-1.16.866-1.968 2.034-2.342 3.202l-.001.007a.051.051 0 0 1-.001.006c-.115 1.07 1.434 2.47 3 3.25-.002-.006.084.032.084.026-.002-.006-.015-.109-.017-.113-.366-2.66 1.648-6.64 3.765-7.513.136-.056.254-.09.27-.095l-.273-.027c-.074-.006-.148-.013-.228-.015a7.464 7.464 0 0 0-.272-.01 6.443 6.443 0 0 0-3.4.892C5.378 5.057 2.383 4.892 1.13 5.31c-.497.167-.833.418-1 .751-.174.35-.175.79-.002 1.306.57 1.704 3.058 4.032 6.211 6.099.457 2.407 2.615 4.875 5.703 5.204l.142.015a.278.278 0 0 1 .05 0 6.618 6.618 0 0 0-.173-.132c-.955-.736-1.813-1.949-2.107-3l.185.093.143.07c4.985 2.465 10.215 3.72 12.53 2.947.519-.174.9-.418 1.075-.768.167-.335.139-.78-.029-1.278-.436-1.3-2.304-3.284-4.675-5.052a5.003 5.003 0 0 0-.145-.107" fill="#95B0B6" style="fill:#95B0B6;stroke:none" stroke="none" class="" data-editor-stroke-width-attr="" data-editor-stroke-width-style=""/></svg>