<svg xmlns="http://www.w3.org/2000/svg" role="img" viewBox="0 0 24 24" preserveAspectRatio="xMidYMid meet" style="width: 200px; height: 200px; transform-origin: 50% 50%; transform: scaleX(1) scaleY(1) rotate(0deg);"><path id="svg-editor-bg-shape" data-editor="bg-shape" d="M 19.85222804784775 12 C 19.944253471357083 13.190947044968606 19.715535326913425 15.029777517389762 19.18268738172991 16.14692649334669 C 18.649839436546394 17.264075469303616 17.377311520550464 18.802478115000596 16.29990841329098 19.44765983971285 C 15.222505306031492 20.0928415644251 13.273182740427554 20.477218749601928 12 20.448137991428375 C 10.726817259572446 20.419057233254822 8.845144988403542 19.924535834617597 7.812023477107288 19.253788118555825 C 6.778901965811033 18.583040402494053 5.64173520851336 17.064554768799944 5.1125232580249715 15.976486551016569 C 4.583311307536583 14.888418333233195 4.262852394613247 13.180768832579256 4.283943807184696 12.000000000000002 C 4.305035219756145 10.819231167420748 4.659636196789193 9.081418483158187 5.253132675167965 8.104694333821538 C 5.846629153546737 7.127970184484888 7.228556897651705 6.083658505958926 8.24058699637651 5.488505671089005 C 9.252617095101316 4.8933528362190835 10.879334119252858 4.124610713111731 11.999999999999998 4.13700876802206 C 13.120665880747138 4.149406822932389 14.726315184273957 4.960618756661107 15.711692868024112 5.571159370491197 C 16.697070551774267 6.181699984321286 17.948104281360813 7.242953432462999 18.56918455833436 8.20727952688932 C 19.190264835307907 9.17160562131564 19.760202624338415 10.809052955031394 19.85222804784775 12 Z" fill="#E6F4F1" stroke="none" style="pointer-events: none;"/><title>Saturn</title><path d="M19.039 11.459c.001.015.022.244.03.407.006.113 0 .29 0 .3.003 0 .029.023.03.024 1.428 1.17 2.943 2.767 3.204 3.94.073.325.056.618-.072.868-.152.293-.439.503-.834.638-2.046.7-6.925-.642-10.907-2.609-2.845-1.406-5.342-3.081-7.032-4.719-1.57-1.523-1.995-2.71-1.59-3.427.155-.271.42-.472.776-.609 1.299-.507 3.788-.152 6.239.579-1.16.866-1.968 2.034-2.342 3.202l-.001.007a.051.051 0 0 1-.001.006c-.115 1.07 1.434 2.47 3 3.25-.002-.006.084.032.084.026-.002-.006-.015-.109-.017-.113-.366-2.66 1.648-6.64 3.765-7.513.136-.056.254-.09.27-.095l-.273-.027c-.074-.006-.148-.013-.228-.015a7.464 7.464 0 0 0-.272-.01 6.443 6.443 0 0 0-3.4.892C5.378 5.057 2.383 4.892 1.13 5.31c-.497.167-.833.418-1 .751-.174.35-.175.79-.002 1.306.57 1.704 3.058 4.032 6.211 6.099.457 2.407 2.615 4.875 5.703 5.204l.142.015a.278.278 0 0 1 .05 0 6.618 6.618 0 0 0-.173-.132c-.955-.736-1.813-1.949-2.107-3l.185.093.143.07c4.985 2.465 10.215 3.72 12.53 2.947.519-.174.9-.418 1.075-.768.167-.335.139-.78-.029-1.278-.436-1.3-2.304-3.284-4.675-5.052a5.003 5.003 0 0 0-.145-.107" fill="#95B0B6" style="fill:#95B0B6;stroke:none" stroke="none" class="" data-editor-stroke-width-attr="" data-editor-stroke-width-style=""/></svg>