<svg xmlns="http://www.w3.org/2000/svg" role="img" viewBox="0 0 24 24" preserveAspectRatio="xMidYMid meet" style="width: 200px; height: 200px; transform-origin: 50% 50%; transform: scaleX(1) scaleY(1) rotate(0deg);"><path id="svg-editor-bg-shape" data-editor="bg-shape" d="M 20.001743611693385 12 C 19.908416116731434 13.199942109122873 19.229398046822094 14.80237438732086 18.616777347267412 15.820198182612657 C 18.00415664771273 16.838021977904454 16.910122216752285 18.18472659975549 15.917605614662172 18.78549196861198 C 14.92508901257206 19.386257337468468 13.177864856667817 19.820826456041022 12 19.82530064165592 C 10.822135143332183 19.82977482727082 9.152291869372391 19.36146673384726 8.065173236876728 18.8153198727113 C 6.9780546043810645 18.26917301157534 5.3402169369864065 17.206619548322887 4.7525424500289155 16.18432156741619 C 4.1648679630714245 15.162023586509497 4.034318322951813 13.190041455544533 4.14734332382679 12.000000000000002 C 4.2603683247017665 10.80995854445547 4.914355881701045 9.266060705811713 5.506042455862097 8.250711863785984 C 6.0977290300231495 7.235363021760256 7.117826853279785 5.805523350647386 8.09192048490047 5.231007719828482 C 9.066014116521155 4.6564920890095785 10.833981704145668 4.409512905249748 11.999999999999998 4.420607658326626 C 13.166018295854329 4.431702411403503 14.779531693543946 4.794976270820965 15.865375790596008 5.304972740340997 C 16.95121988764807 5.814969209861029 18.618505473849133 6.816330032844655 19.23896064701374 7.820584121793505 C 19.85941582017835 8.824838210742357 20.095071106655336 10.800057890877127 20.001743611693385 12 Z" fill="#E6F4F1" stroke="none" style="pointer-events: none;"/><title>Saturn</title><path d="M19.039 11.459c.001.015.022.244.03.407.006.113 0 .29 0 .3.003 0 .029.023.03.024 1.428 1.17 2.943 2.767 3.204 3.94.073.325.056.618-.072.868-.152.293-.439.503-.834.638-2.046.7-6.925-.642-10.907-2.609-2.845-1.406-5.342-3.081-7.032-4.719-1.57-1.523-1.995-2.71-1.59-3.427.155-.271.42-.472.776-.609 1.299-.507 3.788-.152 6.239.579-1.16.866-1.968 2.034-2.342 3.202l-.001.007a.051.051 0 0 1-.001.006c-.115 1.07 1.434 2.47 3 3.25-.002-.006.084.032.084.026-.002-.006-.015-.109-.017-.113-.366-2.66 1.648-6.64 3.765-7.513.136-.056.254-.09.27-.095l-.273-.027c-.074-.006-.148-.013-.228-.015a7.464 7.464 0 0 0-.272-.01 6.443 6.443 0 0 0-3.4.892C5.378 5.057 2.383 4.892 1.13 5.31c-.497.167-.833.418-1 .751-.174.35-.175.79-.002 1.306.57 1.704 3.058 4.032 6.211 6.099.457 2.407 2.615 4.875 5.703 5.204l.142.015a.278.278 0 0 1 .05 0 6.618 6.618 0 0 0-.173-.132c-.955-.736-1.813-1.949-2.107-3l.185.093.143.07c4.985 2.465 10.215 3.72 12.53 2.947.519-.174.9-.418 1.075-.768.167-.335.139-.78-.029-1.278-.436-1.3-2.304-3.284-4.675-5.052a5.003 5.003 0 0 0-.145-.107" fill="#95B0B6" style="fill:#95B0B6;stroke:none" stroke="none" class="" data-editor-stroke-width-attr="" data-editor-stroke-width-style=""/></svg>