<svg xmlns="http://www.w3.org/2000/svg" role="img" viewBox="0 0 24 24" preserveAspectRatio="xMidYMid meet" style="width: 200px; height: 200px; transform-origin: 50% 50%; transform: scaleX(1) scaleY(1) rotate(0deg);"><path id="svg-editor-bg-shape" data-editor="bg-shape" d="M 20.537883775532244 12 C 20.495618384522228 13.214733471304179 19.551308456328456 14.925499060553486 18.872382329811103 15.967771788090467 C 18.19345620329375 17.01004451562745 17.042566948221545 18.26416613195472 16.011709598749878 18.94848485024654 C 14.980852249278213 19.63280356853836 13.209766426160932 20.519065116374804 12 20.529896576702598 C 10.790233573839068 20.54072803703039 8.953174333809676 19.719033162231018 7.946600091010334 19.02069458576517 C 6.940025848210991 18.322356009299323 5.949807316978866 16.927410254795067 5.289505048004383 15.874306066930293 C 4.6292027790298995 14.821201879065518 3.6499637529124422 13.223132291927936 3.5445849645137777 12.000000000000002 C 3.439206176115113 10.776867708072068 3.8900950710917694 8.709832309837804 4.5869797920132855 7.720090787410738 C 5.283864512934802 6.730349264983672 7.078530072792545 5.931688543775587 8.190483103990552 5.40172318381956 C 9.30243613518856 4.8717578238635335 10.821042171701787 4.249520201443329 11.999999999999998 4.186988387703895 C 13.17895782829821 4.124456573964461 14.97707921883028 4.432460386802859 16.050201959311963 4.984844425556666 C 17.123324699793645 5.537228464310473 18.480999330778168 6.817275309896109 19.15415160321121 7.869548646062609 C 19.827303875644255 8.921821982229108 20.58014916654226 10.785266528695821 20.537883775532244 12 Z" fill="#E6F4F1" stroke="none" style="pointer-events: none;"/><title>Saturn</title><path d="M19.039 11.459c.001.015.022.244.03.407.006.113 0 .29 0 .3.003 0 .029.023.03.024 1.428 1.17 2.943 2.767 3.204 3.94.073.325.056.618-.072.868-.152.293-.439.503-.834.638-2.046.7-6.925-.642-10.907-2.609-2.845-1.406-5.342-3.081-7.032-4.719-1.57-1.523-1.995-2.71-1.59-3.427.155-.271.42-.472.776-.609 1.299-.507 3.788-.152 6.239.579-1.16.866-1.968 2.034-2.342 3.202l-.001.007a.051.051 0 0 1-.001.006c-.115 1.07 1.434 2.47 3 3.25-.002-.006.084.032.084.026-.002-.006-.015-.109-.017-.113-.366-2.66 1.648-6.64 3.765-7.513.136-.056.254-.09.27-.095l-.273-.027c-.074-.006-.148-.013-.228-.015a7.464 7.464 0 0 0-.272-.01 6.443 6.443 0 0 0-3.4.892C5.378 5.057 2.383 4.892 1.13 5.31c-.497.167-.833.418-1 .751-.174.35-.175.79-.002 1.306.57 1.704 3.058 4.032 6.211 6.099.457 2.407 2.615 4.875 5.703 5.204l.142.015a.278.278 0 0 1 .05 0 6.618 6.618 0 0 0-.173-.132c-.955-.736-1.813-1.949-2.107-3l.185.093.143.07c4.985 2.465 10.215 3.72 12.53 2.947.519-.174.9-.418 1.075-.768.167-.335.139-.78-.029-1.278-.436-1.3-2.304-3.284-4.675-5.052a5.003 5.003 0 0 0-.145-.107" fill="#95B0B6" style="fill:#95B0B6;stroke:none" stroke="none" class="" data-editor-stroke-width-attr="" data-editor-stroke-width-style=""/></svg>