<svg xmlns="http://www.w3.org/2000/svg" role="img" viewBox="0 0 24 24" preserveAspectRatio="xMidYMid meet" style="width: 200px; height: 200px; transform-origin: 50% 50%; transform: scaleX(1) scaleY(1) rotate(0deg);"><path id="svg-editor-bg-shape" data-editor="bg-shape" d="M 20.282177893817426 12 C 20.145502122693216 13.191997066609563 19.088792635900603 14.70579425089229 18.426412369055377 15.710290911197662 C 17.76403210221015 16.714787571503035 16.83027130354089 18.106450741567958 15.866309448182584 18.696644402035822 C 14.902347592824277 19.286838062503687 13.140036027766763 19.679308312376456 12 19.644915314316748 C 10.859963972233237 19.61052231625704 9.379970763545765 18.970983714302015 8.266069263070824 18.467357748304437 C 7.152167762595882 17.96373178230686 5.235012942513445 17.25751253657857 4.5739899968337205 16.287408874332904 C 3.912967051153996 15.317305212087238 3.732971820359237 13.213316137678923 3.859249625205994 12.000000000000002 C 3.9855274300527506 10.78668386232108 4.786664019344821 9.223895332292157 5.415842029145433 8.198634623140098 C 6.045020038946046 7.173373913988039 7.066145994915225 5.879616823091697 8.05376969054341 5.16492860565294 C 9.041393386171595 4.4502403882141826 10.849711448058484 3.3758833039051295 11.999999999999998 3.434046506881714 C 13.150288551941513 3.4922097098582983 14.621722410337657 4.903243698125673 15.722360036820174 5.552683292163503 C 16.82299766330269 6.202122886201334 18.653611498000526 6.796546294291774 19.337584176550113 7.763643800467249 C 20.0215568550997 8.730741306642724 20.418853664941636 10.808002933390437 20.282177893817426 12 Z" fill="#E6F4F1" stroke="none" style="pointer-events: none;"/><title>Saturn</title><path d="M19.039 11.459c.001.015.022.244.03.407.006.113 0 .29 0 .3.003 0 .029.023.03.024 1.428 1.17 2.943 2.767 3.204 3.94.073.325.056.618-.072.868-.152.293-.439.503-.834.638-2.046.7-6.925-.642-10.907-2.609-2.845-1.406-5.342-3.081-7.032-4.719-1.57-1.523-1.995-2.71-1.59-3.427.155-.271.42-.472.776-.609 1.299-.507 3.788-.152 6.239.579-1.16.866-1.968 2.034-2.342 3.202l-.001.007a.051.051 0 0 1-.001.006c-.115 1.07 1.434 2.47 3 3.25-.002-.006.084.032.084.026-.002-.006-.015-.109-.017-.113-.366-2.66 1.648-6.64 3.765-7.513.136-.056.254-.09.27-.095l-.273-.027c-.074-.006-.148-.013-.228-.015a7.464 7.464 0 0 0-.272-.01 6.443 6.443 0 0 0-3.4.892C5.378 5.057 2.383 4.892 1.13 5.31c-.497.167-.833.418-1 .751-.174.35-.175.79-.002 1.306.57 1.704 3.058 4.032 6.211 6.099.457 2.407 2.615 4.875 5.703 5.204l.142.015a.278.278 0 0 1 .05 0 6.618 6.618 0 0 0-.173-.132c-.955-.736-1.813-1.949-2.107-3l.185.093.143.07c4.985 2.465 10.215 3.72 12.53 2.947.519-.174.9-.418 1.075-.768.167-.335.139-.78-.029-1.278-.436-1.3-2.304-3.284-4.675-5.052a5.003 5.003 0 0 0-.145-.107" fill="#95B0B6" style="fill:#95B0B6;stroke:none" stroke="none" class="" data-editor-stroke-width-attr="" data-editor-stroke-width-style=""/></svg>